<svg version="1.1" viewBox="0 0 32 32" xmlns="http://www.w3.org/2000/svg"><path transform="translate(0,-44)" d="m 3,52.466982 c -1.1045695,0 -2,0.895431 -2,2 v 11 c 0,1.104569 0.8954305,2 2,2 h 26 c 1.104569,0 2,-0.895431 2,-2 v -11 c 0,-1.104569 -0.895431,-2 -2,-2 z m 0,2 h 3 v 2 H 3 Z m 4,0 h 2 v 2 H 7 Z m 3,0 h 2 v 2 h -2 z m 3,0 h 2 v 2 h -2 z m 3,0 h 2 v 2 h -2 z m 3,0 h 2 v 2 h -2 z m 3,0 h 2 v 2 h -2 z m 3,0 h 4 v 2 h -4 z m -22,3 h 2 v 2 H 3 Z m 3,0 h 2 v 2 H 6 Z m 3,0 h 2 v 2 H 9 Z m 3,0 h 2 v 2 h -2 z m 3,0 h 2 v 2 h -2 z m 3,0 h 2 v 2 h -2 z m 3,0 h 2 v 2 h -2 z m 3,0 h 2 v 2 h -2 z m 3,0 h 2 v 2 h -2 z m -24,3 h 3 v 2 H 3 Z m 4,0 h 2 v 2 H 7 Z m 3,0 h 2 v 2 h -2 z m 3,0 h 2 v 2 h -2 z m 3,0 h 2 v 2 h -2 z m 3,0 h 2 v 2 h -2 z m 3,0 h 2 v 2 h -2 z m 3,0 h 4 v 2 h -4 z m -22,3 h 5 v 2 H 3 Z m 6,0 h 12 v 2 H 9 Z m 13,0 h 3 v 2 h -3 z m 4,0 h 3 v 2 h -3 z"/></svg>
