<svg version="1.1" viewBox="0 0 32 32" xmlns="http://www.w3.org/2000/svg"><path d="M 8.0507812 1.2128906 A 2 2 0 0 0 6.0507812 3.2128906 L 6.0507812 11 L 8.0507812 11 L 8.0507812 3.2128906 L 19.384766 3.2128906 L 16.791016 3.9902344 C 16.59456 4.0491743 16.406493 4.3914297 16.267578 4.9394531 C 16.128662 5.4874756 16.050781 6.1960251 16.050781 6.9121094 L 16.050781 26.212891 L 8.0507812 26.212891 L 8.0507812 19 L 6.0507812 19 L 6.0507812 26.212891 A 2 2 0 0 0 8.0507812 28.212891 L 16.050781 28.212891 L 16.050781 28.513672 C 16.050781 29.229755 16.128661 29.892748 16.267578 30.357422 C 16.406493 30.822094 16.59456 31.049171 16.791016 30.990234 L 25.310547 28.435547 C 25.507004 28.376607 25.695069 28.034351 25.833984 27.486328 C 25.899246 27.228872 25.949755 26.935497 25.986328 26.623047 C 25.98868 26.602955 25.991915 26.584702 25.994141 26.564453 A 2 2 0 0 0 26.050781 26.212891 L 26.050781 25.513672 L 26.050781 4.9453125 L 26.050781 3.9121094 L 26.050781 3.2128906 A 2 2 0 0 0 25.916016 2.4960938 A 2 2 0 0 0 25.916016 2.4941406 A 2 2 0 0 0 25.914062 2.4882812 A 2 2 0 0 0 25.910156 2.4804688 A 2 2 0 0 0 25.582031 1.9316406 A 2 2 0 0 0 25.580078 1.9277344 A 2 2 0 0 0 25.578125 1.9257812 A 2 2 0 0 0 25.083984 1.5039062 A 2 2 0 0 0 24.050781 1.2128906 L 8.0507812 1.2128906 z M 10.050781 11.212891 L 10.050781 13.212891 L 1.0507812 13.212891 L 1.0507812 17.212891 L 10.050781 17.212891 L 10.050781 19.212891 L 11.050781 19.212891 L 15.050781 15.212891 L 11.050781 11.212891 L 10.050781 11.212891 z "/></svg>
